<?xml version="1.0" encoding="UTF-8" standalone="no"?>
<svg
   xmlns:dc="http://purl.org/dc/elements/1.1/"
   xmlns:cc="http://creativecommons.org/ns#"
   xmlns:rdf="http://www.w3.org/1999/02/22-rdf-syntax-ns#"
   xmlns:svg="http://www.w3.org/2000/svg"
   xmlns="http://www.w3.org/2000/svg"
   id="svg4"
   viewBox="0 0 24 24"
   height="24"
   width="24"
   version="1.1">
  <metadata
     id="metadata10">
    <rdf:RDF>
      <cc:Work
         rdf:about="">
        <dc:format>image/svg+xml</dc:format>
        <dc:type
           rdf:resource="http://purl.org/dc/dcmitype/StillImage" />
        <dc:title></dc:title>
      </cc:Work>
    </rdf:RDF>
  </metadata>
  <defs
     id="defs8">
  </defs>
  <path
     id="path2"
     d="M 12 3 L 2 12 L 5 12 L 5 20 L 19 20 L 19 12 L 22 12 L 12 3 z M 9 8 L 13 8 C 14.1 8 15 8.89 15 10 L 15 11.5 C 15 12.328427 14.328427 13 13.5 13 C 14.328427 13 15 13.671573 15 14.5 L 15 16 C 15 17.104569 14.104569 18 13 18 L 9 18 L 9 8 z M 11 10 L 11 12 L 13 12 L 13 10 L 11 10 z M 11 14 L 11 16 L 13 16 L 13 14 L 11 14 z " />
</svg>
